{
    "asset" : {
        "generator" : "Khronos glTF Blender I/O v1.7.33",
        "version" : "2.0"
    },
    "scene" : 0,
    "scenes" : [
        {
            "name" : "Scene",
            "nodes" : [
                0,
                1
            ]
        }
    ],
    "nodes" : [
        {
            "mesh" : 0,
            "name" : "Plane"
        },
        {
            "mesh" : 1,
            "name" : "Cube"
        }
    ],
    "materials" : [
        {
            "doubleSided" : true,
            "name" : "map.001",
            "pbrMetallicRoughness" : {
                "baseColorTexture" : {
                    "index" : 0
                },
                "metallicFactor" : 0,
                "roughnessFactor" : 0.5
            }
        }
    ],
    "meshes" : [
        {
            "name" : "Plane",
            "primitives" : [
                {
                    "attributes" : {
                        "POSITION" : 0,
                        "NORMAL" : 1,
                        "TEXCOORD_0" : 2
                    },
                    "indices" : 3,
                    "material" : 0
                }
            ]
        },
        {
            "name" : "Cube.001",
            "primitives" : [
                {
                    "attributes" : {
                        "POSITION" : 4,
                        "NORMAL" : 5,
                        "TEXCOORD_0" : 6
                    },
                    "indices" : 7
                }
            ]
        }
    ],
    "textures" : [
        {
            "sampler" : 0,
            "source" : 0
        }
    ],
    "images" : [
        {
            "mimeType" : "image/jpeg",
            "name" : "map_picture",
            "uri" : "map_picture.jpg"
        }
    ],
    "accessors" : [
        {
            "bufferView" : 0,
            "componentType" : 5126,
            "count" : 66049,
            "max" : [
                2.000000476837158,
                1.8004175424575806,
                -0.04958250746130943
            ],
            "min" : [
                -2.0000007152557373,
                -2.1995837688446045,
                -0.34958356618881226
            ],
            "type" : "VEC3"
        },
        {
            "bufferView" : 1,
            "componentType" : 5126,
            "count" : 66049,
            "type" : "VEC3"
        },
        {
            "bufferView" : 2,
            "componentType" : 5126,
            "count" : 66049,
            "type" : "VEC2"
        },
        {
            "bufferView" : 3,
            "componentType" : 5125,
            "count" : 393216,
            "type" : "SCALAR"
        },
        {
            "bufferView" : 4,
            "componentType" : 5126,
            "count" : 24,
            "max" : [
                2.000000476837158,
                1.8004175424575806,
                0.4495835304260254
            ],
            "min" : [
                -2.0000007152557373,
                -2.1995840072631836,
                -0.050417616963386536
            ],
            "type" : "VEC3"
        },
        {
            "bufferView" : 5,
            "componentType" : 5126,
            "count" : 24,
            "type" : "VEC3"
        },
        {
            "bufferView" : 6,
            "componentType" : 5126,
            "count" : 24,
            "type" : "VEC2"
        },
        {
            "bufferView" : 7,
            "componentType" : 5123,
            "count" : 36,
            "type" : "SCALAR"
        }
    ],
    "bufferViews" : [
        {
            "buffer" : 0,
            "byteLength" : 792588,
            "byteOffset" : 0
        },
        {
            "buffer" : 0,
            "byteLength" : 792588,
            "byteOffset" : 792588
        },
        {
            "buffer" : 0,
            "byteLength" : 528392,
            "byteOffset" : 1585176
        },
        {
            "buffer" : 0,
            "byteLength" : 1572864,
            "byteOffset" : 2113568
        },
        {
            "buffer" : 0,
            "byteLength" : 288,
            "byteOffset" : 3686432
        },
        {
            "buffer" : 0,
            "byteLength" : 288,
            "byteOffset" : 3686720
        },
        {
            "buffer" : 0,
            "byteLength" : 192,
            "byteOffset" : 3687008
        },
        {
            "buffer" : 0,
            "byteLength" : 72,
            "byteOffset" : 3687200
        }
    ],
    "samplers" : [
        {
            "magFilter" : 9729,
            "minFilter" : 9987
        }
    ],
    "buffers" : [
        {
            "byteLength" : 3687272,
            "uri" : "maptest.bin"
        }
    ]
}
