{
    "asset" : {
        "generator" : "Khronos glTF Blender I/O v1.7.33",
        "version" : "2.0"
    },
    "scene" : 0,
    "scenes" : [
        {
            "name" : "Scene",
            "nodes" : [
                0,
                1
            ]
        }
    ],
    "nodes" : [
        {
            "mesh" : 0,
            "name" : "Plane",
            "scale" : [
                2,
                1,
                2
            ],
            "translation" : [
                0,
                0.28018712997436523,
                0
            ]
        },
        {
            "mesh" : 1,
            "name" : "Cube",
            "scale" : [
                2.5,
                0.05000000074505806,
                2.5
            ]
        }
    ],
    "materials" : [
        {
            "doubleSided" : true,
            "name" : "Material.001",
            "pbrMetallicRoughness" : {
                "metallicFactor" : 0,
                "roughnessFactor" : 0.5
            }
        }
    ],
    "meshes" : [
        {
            "name" : "Plane",
            "primitives" : [
                {
                    "attributes" : {
                        "POSITION" : 0,
                        "NORMAL" : 1,
                        "TEXCOORD_0" : 2
                    },
                    "indices" : 3,
                    "material" : 0
                }
            ]
        },
        {
            "name" : "Cube.002",
            "primitives" : [
                {
                    "attributes" : {
                        "POSITION" : 4,
                        "NORMAL" : 5,
                        "TEXCOORD_0" : 6
                    },
                    "indices" : 7
                }
            ]
        }
    ],
    "accessors" : [
        {
            "bufferView" : 0,
            "componentType" : 5126,
            "count" : 17153,
            "max" : [
                1.1107193231582642,
                0,
                1.1107193231582642
            ],
            "min" : [
                -1.1107193231582642,
                0,
                -1.1107193231582642
            ],
            "type" : "VEC3"
        },
        {
            "bufferView" : 1,
            "componentType" : 5126,
            "count" : 17153,
            "type" : "VEC3"
        },
        {
            "bufferView" : 2,
            "componentType" : 5126,
            "count" : 17153,
            "type" : "VEC2"
        },
        {
            "bufferView" : 3,
            "componentType" : 5123,
            "count" : 101376,
            "type" : "SCALAR"
        },
        {
            "bufferView" : 4,
            "componentType" : 5126,
            "count" : 24,
            "max" : [
                1,
                1,
                1
            ],
            "min" : [
                -1,
                -1,
                -1
            ],
            "type" : "VEC3"
        },
        {
            "bufferView" : 5,
            "componentType" : 5126,
            "count" : 24,
            "type" : "VEC3"
        },
        {
            "bufferView" : 6,
            "componentType" : 5126,
            "count" : 24,
            "type" : "VEC2"
        },
        {
            "bufferView" : 7,
            "componentType" : 5123,
            "count" : 36,
            "type" : "SCALAR"
        }
    ],
    "bufferViews" : [
        {
            "buffer" : 0,
            "byteLength" : 205836,
            "byteOffset" : 0
        },
        {
            "buffer" : 0,
            "byteLength" : 205836,
            "byteOffset" : 205836
        },
        {
            "buffer" : 0,
            "byteLength" : 137224,
            "byteOffset" : 411672
        },
        {
            "buffer" : 0,
            "byteLength" : 202752,
            "byteOffset" : 548896
        },
        {
            "buffer" : 0,
            "byteLength" : 288,
            "byteOffset" : 751648
        },
        {
            "buffer" : 0,
            "byteLength" : 288,
            "byteOffset" : 751936
        },
        {
            "buffer" : 0,
            "byteLength" : 192,
            "byteOffset" : 752224
        },
        {
            "buffer" : 0,
            "byteLength" : 72,
            "byteOffset" : 752416
        }
    ],
    "buffers" : [
        {
            "byteLength" : 752488,
            "uri" : "data:application/octet-stream;base64,"
        }
    ]
}
